<svg xmlns="http://www.w3.org/2000/svg" width="254.074" height="230.667" viewBox="0 0 254.074 230.667">
  <g id="bag" transform="translate(10 10)">
    <g id="Icon_feather-briefcase" data-name="Icon feather-briefcase">
      <path id="Caminho_1939" data-name="Caminho 1939" d="M26.407,10.5H213.667a23.407,23.407,0,0,1,23.407,23.407V150.944a23.407,23.407,0,0,1-23.407,23.407H26.407A23.407,23.407,0,0,1,3,150.944V33.907A23.407,23.407,0,0,1,26.407,10.5Z" transform="translate(-3 36.315)" fill="none" stroke="#333" stroke-linecap="round" stroke-linejoin="round" stroke-width="20"/>
      <path id="Caminho_1940" data-name="Caminho 1940" d="M105.63,215.167V27.907A23.407,23.407,0,0,0,82.222,4.5H35.407A23.407,23.407,0,0,0,12,27.907V215.167" transform="translate(58.222 -4.5)" fill="none" stroke="#333" stroke-linecap="round" stroke-linejoin="round" stroke-width="20"/>
    </g>
  </g>
</svg>
