<svg xmlns="http://www.w3.org/2000/svg" width="229.8" height="249.385" viewBox="0 0 229.8 249.385">
  <g id="box" transform="translate(10.595 10)">
    <path id="Caminho_1932" data-name="Caminho 1932" d="M213.11,162.945V71.536a22.8,22.8,0,0,0-11.589-19.767l-81.126-45.7a23.466,23.466,0,0,0-23.179,0l-81.126,45.7A22.8,22.8,0,0,0,4.5,71.536v91.409a22.8,22.8,0,0,0,11.589,19.767l81.126,45.7a23.466,23.466,0,0,0,23.179,0l81.126-45.7A22.8,22.8,0,0,0,213.11,162.945Z" transform="translate(-4.5 -3.003)" fill="none" stroke="#333" stroke-linecap="round" stroke-linejoin="round" stroke-width="20"/>
    <path id="Caminho_1933" data-name="Caminho 1933" d="M4.905,10.44,106.214,66.471,207.524,10.44" transform="translate(-1.909 46.752)" fill="none" stroke="#333" stroke-linecap="round" stroke-linejoin="round" stroke-width="20"/>
    <path id="Caminho_1934" data-name="Caminho 1934" d="M18,129.84V18" transform="translate(86.305 99.545)" fill="none" stroke="#333" stroke-linecap="round" stroke-linejoin="round" stroke-width="20"/>
  </g>
</svg>
