<svg id="circle_not" xmlns="http://www.w3.org/2000/svg" width="252.338" height="248.874" viewBox="0 0 252.338 248.874">
  <g id="Icon" transform="translate(-46.329 -45.793)">
    <path id="Icon_material-block" data-name="Icon material-block" d="M129.169,3C59.524,3,3,58.748,3,127.437S59.524,251.874,129.169,251.874s126.169-55.748,126.169-124.437S198.814,3,129.169,3ZM28.234,127.437c0-55,45.169-99.549,100.935-99.549a100.587,100.587,0,0,1,61.823,21.03L49.556,188.411A97.482,97.482,0,0,1,28.234,127.437Zm100.935,99.549a100.587,100.587,0,0,1-61.823-21.03L208.782,66.463A97.482,97.482,0,0,1,230.1,127.437C230.1,182.438,184.936,226.986,129.169,226.986Z" transform="translate(43.329 42.793)" fill="#333"/>
  </g>
</svg>
