<svg id="circle_timer" xmlns="http://www.w3.org/2000/svg" width="245.605" height="245.667" viewBox="0 0 245.605 245.667">
  <path id="Caminho_1968" data-name="Caminho 1968" d="M126.771,249.6A122.836,122.836,0,0,1,41.525,38.331a9.86,9.86,0,0,1,13.7,14.187A103.086,103.086,0,1,0,136.6,24.144V62.59a9.888,9.888,0,1,1-19.776,0V13.826a9.882,9.882,0,0,1,9.888-9.888,122.833,122.833,0,0,1,.061,245.667Z" transform="translate(-3.938 -3.938)" fill="#333"/>
  <path id="Caminho_1969" data-name="Caminho 1969" d="M21.13,12.419,83.067,56.926a18.742,18.742,0,0,1-21.787,30.5,18.1,18.1,0,0,1-4.357-4.357L12.416,21.134a6.245,6.245,0,0,1,8.715-8.715Z" transform="translate(70.911 70.913)" fill="#333"/>
</svg>
