<svg id="hand" xmlns="http://www.w3.org/2000/svg" width="231.717" height="251.027" viewBox="0 0 231.717 251.027">
  <path id="Icon_ionic-md-hand" data-name="Icon ionic-md-hand" d="M228.4,137.569c-8.172-8.168-20.2-8.9-28.374-.735l-23.358,23.345c-6.081,6.072-13.409,6.085-17.686,1.038-2.834-3.344-1.715-13.657-.921-20.2l11.715-96.292c1.046-8.6-5.082-16.913-13.689-17.959s-16.43,5.569-17.477,14.17l-12.922,75.631c-.675,1.882-2.124,2.207-2.287-.326l-4.4-98.3a15.7,15.7,0,0,0-31.395,0L87.3,116.978c.082,1.143-.9,1.47-1.076.165L72.261,39.835c-1.541-8.528-9.707-14.682-18.238-13.141S39.826,36.884,41.365,45.41L53.8,135.878c.013,1.609-.527,2.529-1.293.466l-18.552-49.6c-2.9-8.165-11.877-12.924-20.046-10.024S1.47,89.083,4.371,97.247L36.894,203.5c.17.586.35,1.168.534,1.747l.068.219c.006.017.014.033.02.049a69.19,69.19,0,0,0,65.795,47.763,93.618,93.618,0,0,0,55.672-18.867h0c16.8-10.114,70.641-67.994,70.641-67.994C237.8,158.246,236.577,145.739,228.4,137.569Z" transform="translate(-3.462 -2.25)" fill="#333"/>
</svg>
