<svg id="olos_cloud" xmlns="http://www.w3.org/2000/svg" width="235.961" height="172" viewBox="0 0 235.961 172">
  <path id="cloud" d="M148.418,175.961q1.3.039,2.607.039a86,86,0,1,0-67.1-139.75H70.858a69.875,69.875,0,0,0,0,139.75H146.07Q147.249,176,148.418,175.961ZM169.405,151.5c25.252-8.265,46.086-32.675,46.086-61.5A64.467,64.467,0,1,0,86.558,90H65.069a85.8,85.8,0,0,1,6.248-32.25h-.459a48.375,48.375,0,0,0,0,96.75H146.07A114.856,114.856,0,0,0,169.405,151.5Z" transform="translate(-1.019 -4)" fill="#333" fill-rule="evenodd"/>
</svg>
