<svg id="sentiment_happy" xmlns="http://www.w3.org/2000/svg" width="246.479" height="246.479" viewBox="0 0 246.479 246.479">
  <g id="Icon" transform="translate(-4.761 -4.76)">
    <path id="ic_sentiment_very_satisfied_24px" d="M125.116,2A123.24,123.24,0,1,0,248.479,125.24,123.1,123.1,0,0,0,125.116,2Zm.123,221.831a98.592,98.592,0,1,1,98.592-98.592A98.564,98.564,0,0,1,125.24,223.831ZM137.563,99.852l13.063,13.063L163.69,99.852l13.063,13.063,13.063-13.063L163.69,73.725Zm-50.775,0,13.063,13.063,13.063-13.063L86.789,73.725,60.662,99.852l13.063,13.063Zm38.451,93.169a67.735,67.735,0,0,0,62.975-43.134H62.264A67.735,67.735,0,0,0,125.24,193.021Z" transform="translate(2.761 2.76)" fill="#333"/>
  </g>
</svg>
