<svg id="user" xmlns="http://www.w3.org/2000/svg" width="256" height="256" viewBox="0 0 256 256">
  <path id="Caminho_1941" data-name="Caminho 1941" d="M81.143,131c40.4,0,73.143-28.654,73.143-64S121.539,3,81.143,3,8,31.654,8,67s32.747,64,73.143,64Zm0-96c20.2,0,36.571,14.327,36.571,32S101.341,99,81.143,99,44.571,84.673,44.571,67,60.945,35,81.143,35Z" transform="translate(46.857 -3)" fill="#333"/>
  <path id="Caminho_1942" data-name="Caminho 1942" d="M133,13C62.308,13,5,63.144,5,125c0,8.836,8.187,16,18.286,16s18.286-7.163,18.286-16c0-44.183,40.934-80,91.429-80s91.429,35.817,91.429,80c0,8.837,8.187,16,18.286,16S261,133.837,261,125C261,63.144,203.692,13,133,13Z" transform="translate(-5 115)" fill="#333"/>
</svg>
