<svg id="list_ul" xmlns="http://www.w3.org/2000/svg" width="243.262" height="197.651" viewBox="0 0 243.262 197.651">
  <path id="Icon_awesome-list-ul" data-name="Icon awesome-list-ul" d="M22.806,3.375A22.806,22.806,0,1,0,45.612,26.181,22.806,22.806,0,0,0,22.806,3.375Zm0,76.02A22.806,22.806,0,1,0,45.612,102.2,22.806,22.806,0,0,0,22.806,79.395Zm0,76.02A22.806,22.806,0,1,0,45.612,178.22a22.806,22.806,0,0,0-22.806-22.806Zm212.855,7.6H83.621a7.6,7.6,0,0,0-7.6,7.6v15.2a7.6,7.6,0,0,0,7.6,7.6H235.66a7.6,7.6,0,0,0,7.6-7.6v-15.2A7.6,7.6,0,0,0,235.66,163.016Zm0-152.039H83.621a7.6,7.6,0,0,0-7.6,7.6v15.2a7.6,7.6,0,0,0,7.6,7.6H235.66a7.6,7.6,0,0,0,7.6-7.6v-15.2A7.6,7.6,0,0,0,235.66,10.977Zm0,76.019H83.621a7.6,7.6,0,0,0-7.6,7.6v15.2a7.6,7.6,0,0,0,7.6,7.6H235.66a7.6,7.6,0,0,0,7.6-7.6V94.6A7.6,7.6,0,0,0,235.66,87Z" transform="translate(0 -3.375)" fill="#333"/>
</svg>
