<svg id="logo_olos" xmlns="http://www.w3.org/2000/svg" width="247.226" height="71.268" viewBox="0 0 247.226 71.268">
  <g id="Grupo_1879" data-name="Grupo 1879" transform="translate(-0.001 0.01)">
    <rect id="Retângulo_2535" data-name="Retângulo 2535" width="5.45" height="5.45" transform="translate(230.961 25.794) rotate(90)" fill="none" stroke="#e3e4e8" stroke-miterlimit="10" stroke-width="1"/>
    <path id="Caminho_1999" data-name="Caminho 1999" d="M78.978,36.873H60.447A10.246,10.246,0,0,1,50.21,26.636V18.6A10.246,10.246,0,0,1,60.447,8.36H78.978A10.246,10.246,0,0,1,89.215,18.6v8.039A10.246,10.246,0,0,1,78.978,36.873ZM59.833,13.81A4.187,4.187,0,0,0,55.643,18v9.249a4.187,4.187,0,0,0,4.19,4.19H79.574a4.187,4.187,0,0,0,4.19-4.19V18a4.187,4.187,0,0,0-4.19-4.19H59.833Z" transform="translate(35.31 5.886)" fill="#ff7f11"/>
    <path id="Caminho_2000" data-name="Caminho 2000" d="M109.408,36.873H84.421a9.149,9.149,0,0,1-9.351-8.908V8.36h5.45v20.2a3.106,3.106,0,0,0,3.3,2.861h25.583v5.45Z" transform="translate(52.793 5.886)" fill="#ff7f11"/>
    <path id="Caminho_2001" data-name="Caminho 2001" d="M125.218,36.873H106.687A10.246,10.246,0,0,1,96.45,26.636V18.6A10.246,10.246,0,0,1,106.687,8.36h18.531A10.246,10.246,0,0,1,135.455,18.6v8.039A10.246,10.246,0,0,1,125.218,36.873ZM106.073,13.81a4.187,4.187,0,0,0-4.19,4.19v9.249a4.187,4.187,0,0,0,4.19,4.19h19.741a4.187,4.187,0,0,0,4.19-4.19V18a4.187,4.187,0,0,0-4.19-4.19H106.073Z" transform="translate(67.828 5.886)" fill="#ff7f11"/>
    <g id="Grupo_1879-2" data-name="Grupo 1879" transform="translate(0.001 -0.01)">
      <path id="Caminho_2002" data-name="Caminho 2002" d="M50.614,24.6c.051,5.178-5.28,10.509-11.5,11.65-5.791,1.073-10-1.976-9.743-6.609.238-4.514,4.633-9.3,10.151-10.884,5.91-1.7,11.037.8,11.088,5.842Z" transform="translate(20.648 12.835)" fill="#ff7f11"/>
      <path id="Caminho_2003" data-name="Caminho 2003" d="M29.413,12.083c.2-3.713,4.19-8.448,9.164-10.782,5.28-2.47,9.828-1.38,9.845,2.674.017,4.156-4.718,9.436-10.237,11.565-5.178,1.993-8.976.358-8.772-3.458Z" transform="translate(20.677 0.01)" fill="#ff7f11"/>
      <path id="Caminho_2004" data-name="Caminho 2004" d="M27.627,14.362c4.1-3.475,9.436-4.377,11.872-1.771,2.572,2.742.8,8.125-3.9,11.718-4.514,3.458-9.709,3.713-11.684.852C22.024,22.436,23.659,17.7,27.627,14.362Z" transform="translate(16.263 7.814)" fill="#ff7f11"/>
      <path id="Caminho_2005" data-name="Caminho 2005" d="M33.475,27.807c-.273,4.548-4.531,9.078-9.2,9.93-4.394.818-7.392-1.976-6.949-6.1.426-4.02,4.037-8.159,8.278-9.385C30.1,20.96,33.747,23.361,33.475,27.807Z" transform="translate(12.153 15.421)" fill="#ff7f11"/>
      <path id="Caminho_2006" data-name="Caminho 2006" d="M10.355,32.1c-.562,3.662-3.509,7.137-6.421,7.665C1.157,40.28-.495,37.9.135,34.523c.613-3.3,3.219-6.558,5.944-7.341,2.861-.818,4.837,1.329,4.292,4.905Z" transform="translate(-0.001 19.01)" fill="#ff7f11"/>
      <path id="Caminho_2007" data-name="Caminho 2007" d="M22.691,8.784c3.577-3.3,8.09-4.428,10.049-2.35,2.061,2.2.443,6.949-3.594,10.39-3.866,3.321-8.278,3.935-9.879,1.6-1.533-2.231-.034-6.472,3.424-9.657Z" transform="translate(13.126 3.803)" fill="#ff7f11"/>
      <path id="Caminho_2008" data-name="Caminho 2008" d="M24.808.726c3.134-.238,4.037,2.691,1.874,6.523-2.146,3.8-6.353,6.762-9.249,6.643-2.742-.119-3.321-3-1.4-6.455C17.961,3.962,21.845.964,24.808.743Z" transform="translate(10.481 0.517)" fill="#ff7f11"/>
      <path id="Caminho_2009" data-name="Caminho 2009" d="M13.791,47.692c-3.049-1.857-3.577-6.4-1.346-10.288,2.248-3.9,6.643-6,10-4.582,3.577,1.516,4.548,6.37,1.976,10.731-2.555,4.326-7.392,6.1-10.628,4.122Z" transform="translate(7.787 22.788)" fill="#ff7f11"/>
      <path id="Caminho_2010" data-name="Caminho 2010" d="M19.289,9.763c2.861.187,3.577,3.389,1.465,7.12-2.1,3.7-6.013,6.234-8.653,5.706-2.5-.511-2.913-3.611-1.039-6.983,1.891-3.389,5.519-6.013,8.227-5.842Z" transform="translate(6.956 6.877)" fill="#ff7f11"/>
      <path id="Caminho_2011" data-name="Caminho 2011" d="M20.635,30.227c-.46,4.054-3.952,7.988-7.6,8.653-3.441.63-5.655-1.942-5.093-5.655A10.727,10.727,0,0,1,14.9,24.98c3.543-1.022,6.2,1.26,5.74,5.229Z" transform="translate(5.524 17.413)" fill="#ff7f11"/>
      <path id="Caminho_2012" data-name="Caminho 2012" d="M13.892,18.6c2.589.6,3.134,4.054,1.09,7.682C12.955,29.891,9.276,32,6.909,31.1c-2.265-.869-2.538-4.19-.7-7.477,1.84-3.3,5.246-5.57,7.7-5.008Z" transform="translate(3.513 13.048)" fill="#ff7f11"/>
      <path id="Caminho_2013" data-name="Caminho 2013" d="M2.466,21.217a11.169,11.169,0,0,1,5.6-7.341c2.725-1.277,4.633.1,4.156,3.185a10.985,10.985,0,0,1-6.013,7.7c-2.657,1.022-4.275-.6-3.73-3.526Z" transform="translate(1.67 9.441)" fill="#ff7f11"/>
    </g>
    <path id="Caminho_2014" data-name="Caminho 2014" d="M153.419,19.908H129.812a3.049,3.049,0,1,1,0-6.1h28.734V8.36H129.812a8.482,8.482,0,0,0,0,16.964h23.607a3.049,3.049,0,0,1,0,6.1h-31.6v5.45h31.6a8.482,8.482,0,0,0,0-16.964Z" transform="translate(85.326 5.886)" fill="#ff7f11"/>
  </g>
</svg>
