<svg id="notification" xmlns="http://www.w3.org/2000/svg" width="249" height="249" viewBox="0 0 249 249">
  <path id="Notification_Icon" data-name="Notification Icon" d="M93.379,217.878h62.242a31.121,31.121,0,1,1-62.242,0ZM15.561,202.318C6.233,202.318,0,196.085,0,186.757S6.233,171.2,15.561,171.2h7.787c10.883-10.9,23.334-26.458,23.334-46.7V77.818C46.682,34.245,80.928,0,124.5,0s77.8,34.245,77.8,77.818V124.5c0,20.239,12.453,35.8,23.349,46.7h7.787c9.328,0,15.561,6.219,15.561,15.561s-6.233,15.561-15.561,15.561Z" fill="#333"/>
</svg>
