<svg id="star_outline" xmlns="http://www.w3.org/2000/svg" width="253" height="253" viewBox="0 0 253 253">
  <path id="Icon_ionic-ios-star-outline" data-name="Icon ionic-ios-star-outline" d="M245.65,90.952H162.577L137.334,9.822a8.938,8.938,0,0,0-17.168,0L94.923,90.952H11.286c-4.97,0-9.036,4.379-9.036,9.731a7.678,7.678,0,0,0,.169,1.642c.113,2.129,1.017,4.5,3.784,6.872l68.276,51.816-26.2,82.043A10.209,10.209,0,0,0,51.382,254c1.638,1.277,3.162,2.372,5.083,2.372a10.585,10.585,0,0,0,5.647-2.189l66.638-51.147,66.638,51.147a10.12,10.12,0,0,0,5.647,2.189c1.92,0,3.445-1.034,5.026-2.372a10.081,10.081,0,0,0,3.106-10.947l-26.2-82.043,67.711-52.3,1.638-1.52c1.468-1.7,2.937-4.014,2.937-6.507A9.9,9.9,0,0,0,245.65,90.952Zm-71.834,56.256a17.835,17.835,0,0,0-5.76,19.34l17,53.337a2.318,2.318,0,0,1-3.445,2.8L137.9,189.111a15.02,15.02,0,0,0-9.205-3.162,14.746,14.746,0,0,0-9.149,3.162l-43.71,33.51c-1.807,1.4-4.179-.547-3.445-2.8l17-53.337a17.891,17.891,0,0,0-5.817-19.462L37.828,112.3c-1.807-1.338-.9-4.44,1.3-4.44H94.866c6.777,0,12.819-4.683,14.965-11.616L126.548,42.6a2.223,2.223,0,0,1,4.292,0l16.716,53.641c2.146,6.933,8.189,11.616,14.965,11.616h54.948a2.438,2.438,0,0,1,1.3,4.379Z" transform="translate(-2.25 -3.375)" fill="#333"/>
</svg>
