<svg id="usd" xmlns="http://www.w3.org/2000/svg" width="143.722" height="254" viewBox="0 0 143.722 254">
  <path id="Icon_metro-money" data-name="Icon metro-money" d="M88.087,117.9c-32.032-8.325-42.333-16.863-42.333-30.268,0-15.381,14.182-26.176,38.1-26.176,25.118,0,34.431,11.995,35.278,29.633h31.185c-.917-24.342-15.8-46.5-45.3-53.763V6.427H62.687v30.48C35.312,42.9,13.3,60.543,13.3,87.848c0,32.6,27.023,48.825,66.322,58.279,35.348,8.467,42.333,20.814,42.333,34.078,0,9.666-6.844,25.188-38.1,25.188-29.069,0-40.57-13.053-42.051-29.633H10.688c1.764,30.9,24.835,48.19,52,54.045v30.621h42.333V230.088c27.446-5.292,49.389-21.167,49.389-50.165,0-39.935-34.29-53.622-66.322-62.018Z" transform="translate(-10.688 -6.427)" fill="#333"/>
</svg>
