<svg xmlns="http://www.w3.org/2000/svg" viewBox="0 0 18 18"><path fill-rule="evenodd" d="M9 18a9 9 0 1 0-9-9 9 9 0 0 0 9 9Zm2.806-2.585a7 7 0 0 0 4.175-5.89 11.53 11.53 0 0 1-3.044 1.075 14.806 14.806 0 0 1-1.131 4.815ZM6.194 2.585a7.016 7.016 0 0 0-3.972 4.659A4.4 4.4 0 0 0 3.448 8a9.928 9.928 0 0 0 1.557.529 15.73 15.73 0 0 1 1.189-5.944Zm.906 8.326a12.451 12.451 0 0 0 .9 3.641 4.123 4.123 0 0 0 .823 1.292.983.983 0 0 0 .178.141.983.983 0 0 0 .178-.141A4.123 4.123 0 0 0 10 14.552a12.451 12.451 0 0 0 .9-3.641 20.17 20.17 0 0 1-3.8 0ZM5.063 10.6a14.806 14.806 0 0 0 1.132 4.817 7 7 0 0 1-4.175-5.89A11.53 11.53 0 0 0 5.063 10.6ZM11 8.89A17.837 17.837 0 0 1 9 9a17.838 17.838 0 0 1-2-.11 14.106 14.106 0 0 1 1-5.441 4.124 4.124 0 0 1 .823-1.292A.988.988 0 0 1 9 2.015a.988.988 0 0 1 .178.141A4.124 4.124 0 0 1 10 3.448a14.106 14.106 0 0 1 1 5.442Zm1.995-.36a15.729 15.729 0 0 0-1.189-5.945 7.016 7.016 0 0 1 3.972 4.659A4.394 4.394 0 0 1 14.552 8a9.925 9.925 0 0 1-1.557.53Z"/></svg>