<svg xmlns="http://www.w3.org/2000/svg" viewBox="0 0 16.015 11.625">
  <g id="arrows-exchange" transform="translate(-3.993 -6.188)">
    <path id="Caminho_1446" data-name="Caminho 1446" d="M4.993,12.984a1,1,0,0,0-.531,1.848L7.15,17.52a1,1,0,1,0,1.414-1.414L7.443,14.984h7.55a1,1,0,0,0,0-2h-10Z" fill="#fc7f11"/>
    <path id="Caminho_1447" data-name="Caminho 1447" d="M19.007,11.016a1,1,0,0,0,.531-1.848L16.85,6.48a1,1,0,0,0-1.414,1.414l1.121,1.121H9.007a1,1,0,0,0,0,2h10Z" fill="#fc7f11"/>
  </g>
</svg>
