<svg xmlns="http://www.w3.org/2000/svg" viewBox="0 0 21.571 22.189"><path fill-rule="evenodd" d="M16.737 14.665a5.993 5.993 0 0 1-2.271 4.064 4.016 4.016 0 0 1-1.756 1.96 2 2 0 0 1-3.874 0 4.016 4.016 0 0 1-1.75-1.96 5.993 5.993 0 0 1-2.269-4.047 3 3 0 0 1-4.11-4.32l4.089-4.878a6 6 0 0 1 11.953-.033l4.121 4.911a3 3 0 0 1-4.132 4.3ZM14.411 12l-1.678-2H8.839l-1.678 2Zm2.362-.3 1.032 1.229a1 1 0 1 0 1.532-1.285l-2.563-3.05Zm-2-3.7V6a4 4 0 0 0-8 0v2ZM3.767 12.933l1.007-1.2V8.621l-2.54 3.027a1 1 0 1 0 1.532 1.285ZM10.774 18a4 4 0 0 1-4-4h8a4 4 0 0 1-4 4Z"/></svg>