<svg xmlns="http://www.w3.org/2000/svg" viewBox="0 0 21.073 18"><path fill-rule="evenodd" d="M4.608.173A9 9 0 0 0 0 2.636l2.13 2.13a5.988 5.988 0 0 1 5.706-1.571 9 9 0 0 0 0 11.611 5.989 5.989 0 0 1-5.7-1.571l-2.13 2.13a9 9 0 0 0 9.808 1.951q.373-.154.728-.34.355.186.728.34a9 9 0 0 0 9.808-1.951l-2.13-2.13a5.989 5.989 0 0 1-5.7 1.571 9 9 0 0 0 0-11.611 5.988 5.988 0 0 1 5.7 1.571l2.13-2.13A9 9 0 0 0 11.27.685q-.373.154-.728.341-.355-.186-.728-.341A9 9 0 0 0 4.608.173ZM10.536 4.7a5.988 5.988 0 0 0 0 8.59 5.988 5.988 0 0 0 0-8.59Z"/></svg>