<svg xmlns="http://www.w3.org/2000/svg" viewBox="0 0 20 20"><path fill-rule="evenodd" d="M10.261 20h-.522A10 10 0 0 1 2.908 2.95l.042-.042a9.991 9.991 0 0 1 14.106.006l.03.03A9.967 9.967 0 0 1 20 9.857v.295A9.991 9.991 0 0 1 10.261 20Zm1.771-6.55 2.874 2.874a8 8 0 0 1-9.812 0l2.874-2.874a4.007 4.007 0 0 0 4.064-.004Zm-5.478-1.418L3.68 14.906a8 8 0 0 1 0-9.812l2.874 2.874a4.007 4.007 0 0 0 0 4.064Zm1.529-1.463-.015-.051a2 2 0 0 1 1.363-2.436l.051-.015a2 2 0 0 1 2.436 1.363l.015.051a2 2 0 0 1-1.363 2.436l-.051.015a2 2 0 0 1-2.436-1.363Zm3.95-4.016a4.007 4.007 0 0 0-4.064 0L5.094 3.68a8 8 0 0 1 9.812 0Zm4.288 8.352a8 8 0 0 0 0-9.812l-2.875 2.875a4.007 4.007 0 0 1 0 4.064Z"/></svg>